<?xml version="1.0" encoding="UTF-8" standalone="no"?>
<svg
   xmlns:dc="http://purl.org/dc/elements/1.1/"
   xmlns:cc="http://creativecommons.org/ns#"
   xmlns:rdf="http://www.w3.org/1999/02/22-rdf-syntax-ns#"
   xmlns:svg="http://www.w3.org/2000/svg"
   xmlns="http://www.w3.org/2000/svg"
   viewBox="0 0 800 266.66666"
   height="266.66666"
   width="800"
   xml:space="preserve"
   id="svg2"
   version="1.1"><metadata
     id="metadata8"><rdf:RDF><cc:Work
         rdf:about=""><dc:format>image/svg+xml</dc:format><dc:type
           rdf:resource="http://purl.org/dc/dcmitype/StillImage" /></cc:Work></rdf:RDF></metadata><defs
     id="defs6"><clipPath
       id="clipPath20"
       clipPathUnits="userSpaceOnUse"><path
         id="path18"
         d="M 0,0 H 600 V 200 H 0 Z" /></clipPath><clipPath
       id="clipPath48"
       clipPathUnits="userSpaceOnUse"><path
         id="path46"
         d="M 0,0 H 600 V 200 H 0 Z" /></clipPath><clipPath
       id="clipPath54"
       clipPathUnits="userSpaceOnUse"><path
         id="path52"
         d="M 353,7 H 528 V 183 H 353 Z" /></clipPath><clipPath
       id="clipPath58"
       clipPathUnits="userSpaceOnUse"><path
         id="path56"
         d="M 353,7 H 528 V 183 H 353 Z" /></clipPath><clipPath
       id="clipPath80"
       clipPathUnits="userSpaceOnUse"><path
         id="path78"
         d="M 0,0 H 600 V 200 H 0 Z" /></clipPath><clipPath
       id="clipPath86"
       clipPathUnits="userSpaceOnUse"><path
         id="path84"
         d="M 333,0 H 552 V 200 H 333 Z" /></clipPath><clipPath
       id="clipPath90"
       clipPathUnits="userSpaceOnUse"><path
         id="path88"
         d="M 333,0 H 552 V 200 H 333 Z" /></clipPath></defs><g
     transform="matrix(1.3333333,0,0,-1.3333333,0,266.66667)"
     id="g10"><g
       id="g12" /><g
       id="g14"><g
         clip-path="url(#clipPath20)"
         id="g16"><path
           id="path22"
           style="fill:#222222;fill-opacity:1;fill-rule:nonzero;stroke:none"
           d="M 0,0 H 600 V 200 H 0 Z" /><path
           id="path24"
           style="fill:#1c3ffd;fill-opacity:1;fill-rule:nonzero;stroke:none"
           d="m 70.34993,50 h 240.0905 V 150 H 70.34993 Z" /><g
           transform="translate(82.67667,67.00174)"
           id="g26"><text
             id="text30"
             style="font-variant:normal;font-weight:500;font-size:97px;font-family:AvenirNext;-inkscape-font-specification:AvenirNext-Medium;writing-mode:lr-tb;fill:#fca600;fill-opacity:1;fill-rule:nonzero;stroke:none"
             transform="scale(1,-1)"><tspan
               id="tspan28"
               y="0"
               x="0 57.715 84.001999 152.67799 215.437">PICK </tspan></text>
</g><g
           transform="translate(376.4024,71.91379)"
           id="g32"><text
             id="text36"
             style="font-variant:normal;font-weight:500;font-size:79px;font-family:AvenirNext;-inkscape-font-specification:AvenirNext-Medium;writing-mode:lr-tb;fill:#15a9fa;fill-opacity:1;fill-rule:nonzero;stroke:none"
             transform="scale(1,-1)"><tspan
               id="tspan34"
               y="0"
               x="0 71.336998 118.816">ME </tspan></text>
</g><g
           transform="matrix(1,0,0,-1,366.047,170.7492)"
           id="g38"><path
             id="path40"
             style="fill:none;stroke:#0deaff;stroke-width:2;stroke-linecap:butt;stroke-linejoin:miter;stroke-miterlimit:4;stroke-dasharray:none;stroke-opacity:1"
             d="m 119.0937,20.72196 c 27.2443,27.62928 27.2443,72.4252 0,100.05444 -27.24433,27.6293 -71.41612,27.6293 -98.66045,0 -27.244333,-27.62924 -27.244333,-72.42516 0,-100.05444 27.24433,-27.62928 71.41612,-27.62928 98.66045,0 z" /></g></g></g><g
       id="g42"><g
         clip-path="url(#clipPath48)"
         id="g44"><g
           id="g50" /><g
           id="g72"><g
             style="opacity:0.67470003"
             id="g70"
             clip-path="url(#clipPath54)"><g
               id="g60" /><g
               id="g68"><g
                 id="g66"
                 clip-path="url(#clipPath58)"><g
                   id="g64"
                   transform="matrix(1,0,0,-1,355.5116,180.2988)"><path
                     id="path62"
                     style="fill:none;stroke:#ffe989;stroke-width:2;stroke-linecap:butt;stroke-linejoin:miter;stroke-miterlimit:4;stroke-dasharray:none;stroke-opacity:1"
                     d="m 137.0787,23.51898 c 31.3586,31.35864 31.3586,82.20102 0,113.55972 -31.3587,31.3586 -82.20108,31.3586 -113.55972,0 -31.35864,-31.3587 -31.35864,-82.20108 0,-113.55972 31.35864,-31.35864 82.20102,-31.35864 113.55972,0 z" /></g></g></g></g></g></g></g><g
       id="g74"><g
         clip-path="url(#clipPath80)"
         id="g76"><g
           id="g82" /><g
           id="g104"><g
             style="opacity:0.1762"
             id="g102"
             clip-path="url(#clipPath86)"><g
               id="g92" /><g
               id="g100"><g
                 id="g98"
                 clip-path="url(#clipPath90)"><g
                   id="g96"
                   transform="matrix(1,0,0,-1,336.3104,199.5)"><path
                     id="path94"
                     style="fill:none;stroke:#ffe989;stroke-width:3;stroke-linecap:butt;stroke-linejoin:miter;stroke-miterlimit:4;stroke-dasharray:none;stroke-opacity:1"
                     d="M 169.8571,29.14288 C 208.7143,68.00004 208.7143,131 169.8571,169.8571 131,208.7143 68.00004,208.7143 29.14288,169.8571 -9.714292,131 -9.714292,68.00004 29.14288,29.14288 68.00004,-9.714292 131,-9.714292 169.8571,29.14288 Z" /></g></g></g></g></g></g></g></g></svg>